<svg xmlns="http://www.w3.org/2000/svg" class="marks" width="672" height="254">
    <path fill="#fff" d="M0 0h672v254H0z"/>
    <g class="mark-group role-frame root" aria-roledescription="group mark container" fill="none" stroke-miterlimit="10">
        <path class="background" aria-hidden="true" d="M85 42Z"/>
        <g class="mark-group role-scope child__Safe_Parsing_group" aria-roledescription="group mark container">
            <path class="background" aria-hidden="true" d="M85.5 42.5h200v60h-200Z" stroke="#ddd"/>
            <g class="mark-group role-axis" aria-roledescription="axis" aria-label="X-axis for a linear scale with values from 0 to 20,000,000">
                <path class="background" aria-hidden="true" d="M85.5 102.5Z" pointer-events="none"/>
                <g class="mark-rule role-axis-grid" pointer-events="none" stroke="#ddd">
                    <path d="M85.5 102.5v-60M135.5 102.5v-60M185.5 102.5v-60M235.5 102.5v-60M285.5 102.5v-60"/>
                </g>
            </g>
            <g pointer-events="none" class="mark-group role-axis" aria-roledescription="axis" aria-label="X-axis titled 'Safe Parsing' for a linear scale with values from 0 to 20,000,000">
                <path class="background" aria-hidden="true" d="M85.5 102.5Z"/>
                <g class="mark-rule role-axis-tick" stroke="#888">
                    <path d="M85.5 102.5v5M135.5 102.5v5M185.5 102.5v5M235.5 102.5v5M285.5 102.5v5"/>
                </g>
                <g class="mark-text role-axis-label" font-family="sans-serif" font-size="10" fill="#000">
                    <text transform="translate(85.5 117.5)">0</text>
                    <text text-anchor="end" transform="translate(285.5 117.5)">20,000,000</text>
                </g>
                <path stroke="#888" d="M85.5 102.5h200" class="mark-rule role-axis-domain"/>
                <text text-anchor="middle" transform="translate(185.5 132.5)" font-family="sans-serif" font-size="11" font-weight="bold" fill="#000" class="mark-text role-axis-title">Safe Parsing</text>
            </g>
            <g pointer-events="none" class="mark-group role-axis" aria-roledescription="axis" aria-label="Y-axis for a discrete scale with 4 values: ... rest, decco, spectypes, valita">
                <path class="background" aria-hidden="true" d="M85.5 42.5Z"/>
                <g class="mark-rule role-axis-tick" stroke="#888">
                    <path d="M85.5 49.5h-5M85.5 64.5h-5M85.5 79.5h-5M85.5 94.5h-5"/>
                </g>
                <g class="mark-text role-axis-label" text-anchor="end" font-family="sans-serif" font-size="10" fill="#000">
                    <text transform="translate(78.5 52.5)">... rest</text>
                    <text transform="translate(78.5 67.5)">decco</text>
                    <text transform="translate(78.5 82.5)">spectypes</text>
                    <text transform="translate(78.5 97.5)">valita</text>
                </g>
                <path stroke="#888" d="M85.5 42.5v60" class="mark-rule role-axis-domain"/>
            </g>
            <g class="mark-rect role-mark child__Safe_Parsing_marks" aria-roledescription="rect mark container">
                <path d="M85 72.75h192.452v13.5H85Z" fill="#54a24b"/>
                <path d="M85 87.75h29.553v13.5H85Z" fill="#b279a2"/>
                <path d="M85 57.75h21.92v13.5H85Z" fill="#f58518"/>
                <path d="M85 42.75h8.284v13.5H85Z" fill="#4c78a8"/>
            </g>
        </g>
        <g class="mark-group role-scope child__Strict_Parsing_group" aria-roledescription="group mark container">
            <path class="background" aria-hidden="true" d="M459.5 42.5h200v60h-200Z" stroke="#ddd"/>
            <g class="mark-group role-axis" aria-roledescription="axis" aria-label="X-axis for a linear scale with values from 0 to 18,000,000">
                <path class="background" aria-hidden="true" d="M459.5 102.5Z" pointer-events="none"/>
                <g class="mark-rule role-axis-grid" pointer-events="none" stroke="#ddd">
                    <path d="M459.5 102.5v-60M515.5 102.5v-60M570.5 102.5v-60M626.5 102.5v-60"/>
                </g>
            </g>
            <g pointer-events="none" class="mark-group role-axis" aria-roledescription="axis" aria-label="X-axis titled 'Strict Parsing' for a linear scale with values from 0 to 18,000,000">
                <path class="background" aria-hidden="true" d="M459.5 102.5Z"/>
                <g class="mark-rule role-axis-tick" stroke="#888">
                    <path d="M459.5 102.5v5M515.5 102.5v5M570.5 102.5v5M626.5 102.5v5"/>
                </g>
                <g class="mark-text role-axis-label" font-family="sans-serif" font-size="10" fill="#000">
                    <text transform="translate(459.5 117.5)">0</text>
                    <text text-anchor="middle" transform="translate(626.167 117.5)">15,000,000</text>
                </g>
                <path stroke="#888" d="M459.5 102.5h200" class="mark-rule role-axis-domain"/>
                <text text-anchor="middle" transform="translate(559.5 132.5)" font-family="sans-serif" font-size="11" font-weight="bold" fill="#000" class="mark-text role-axis-title">Strict Parsing</text>
            </g>
            <g pointer-events="none" class="mark-group role-axis" aria-roledescription="axis" aria-label="Y-axis for a discrete scale with 4 values: ... rest, simple-runtypes, spectypes, valita">
                <path class="background" aria-hidden="true" d="M459.5 42.5Z"/>
                <g class="mark-rule role-axis-tick" stroke="#888">
                    <path d="M459.5 49.5h-5M459.5 64.5h-5M459.5 79.5h-5M459.5 94.5h-5"/>
                </g>
                <g class="mark-text role-axis-label" text-anchor="end" font-family="sans-serif" font-size="10" fill="#000">
                    <text transform="translate(452.5 52.5)">... rest</text>
                    <text transform="translate(452.5 67.5)">simple-runtypes</text>
                    <text transform="translate(452.5 82.5)">spectypes</text>
                    <text transform="translate(452.5 97.5)">valita</text>
                </g>
                <path stroke="#888" d="M459.5 42.5v60" class="mark-rule role-axis-domain"/>
            </g>
            <g class="mark-rect role-mark child__Strict_Parsing_marks" aria-roledescription="rect mark container">
                <path d="M459 72.75h194.267v13.5H459Z" fill="#54a24b"/>
                <path d="M459 87.75h30.363v13.5H459Z" fill="#b279a2"/>
                <path d="M459 57.75h23.125v13.5H459Z" fill="#72b7b2"/>
                <path d="M459 42.75h7.03v13.5H459Z" fill="#4c78a8"/>
            </g>
        </g>
        <g class="mark-group role-scope child__Loose_Assertion_group" aria-roledescription="group mark container">
            <path class="background" aria-hidden="true" d="M85.5 156.5h200v60h-200Z" stroke="#ddd"/>
            <g class="mark-group role-axis" aria-roledescription="axis" aria-label="X-axis for a linear scale with values from 0 to 65,000,000">
                <path class="background" aria-hidden="true" d="M85.5 216.5Z" pointer-events="none"/>
                <g class="mark-rule role-axis-grid" pointer-events="none" stroke="#ddd">
                    <path d="M85.5 216.5v-60M116.5 216.5v-60M147.5 216.5v-60M177.5 216.5v-60M208.5 216.5v-60M239.5 216.5v-60M270.5 216.5v-60"/>
                </g>
            </g>
            <g pointer-events="none" class="mark-group role-axis" aria-roledescription="axis" aria-label="X-axis titled 'Loose Assertion' for a linear scale with values from 0 to 65,000,000">
                <path class="background" aria-hidden="true" d="M85.5 216.5Z"/>
                <g class="mark-rule role-axis-tick" stroke="#888">
                    <path d="M85.5 216.5v5M116.5 216.5v5M147.5 216.5v5M177.5 216.5v5M208.5 216.5v5M239.5 216.5v5M270.5 216.5v5"/>
                </g>
                <g class="mark-text role-axis-label" font-family="sans-serif" font-size="10" fill="#000">
                    <text transform="translate(85.5 231.5)">0</text>
                    <text text-anchor="middle" transform="translate(270.115 231.5)">60,000,000</text>
                </g>
                <path stroke="#888" d="M85.5 216.5h200" class="mark-rule role-axis-domain"/>
                <text text-anchor="middle" transform="translate(185.5 246.5)" font-family="sans-serif" font-size="11" font-weight="bold" fill="#000" class="mark-text role-axis-title">Loose Assertion</text>
            </g>
            <g pointer-events="none" class="mark-group role-axis" aria-roledescription="axis" aria-label="Y-axis for a discrete scale with 4 values: ... rest, marshal, spectypes, suretype">
                <path class="background" aria-hidden="true" d="M85.5 156.5Z"/>
                <g class="mark-rule role-axis-tick" stroke="#888">
                    <path d="M85.5 163.5h-5M85.5 178.5h-5M85.5 193.5h-5M85.5 208.5h-5"/>
                </g>
                <g class="mark-text role-axis-label" text-anchor="end" font-family="sans-serif" font-size="10" fill="#000">
                    <text transform="translate(78.5 166.5)">... rest</text>
                    <text transform="translate(78.5 181.5)">marshal</text>
                    <text transform="translate(78.5 196.5)">spectypes</text>
                    <text transform="translate(78.5 211.5)">suretype</text>
                </g>
                <path stroke="#888" d="M85.5 156.5v60" class="mark-rule role-axis-domain"/>
            </g>
            <g class="mark-rect role-mark child__Loose_Assertion_marks" aria-roledescription="rect mark container">
                <path d="M85 186.75h194.245v13.5H85Z" fill="#54a24b"/>
                <path d="M85 171.75h75.653v13.5H85Z" fill="#e45756"/>
                <path d="M85 201.75h74.474v13.5H85Z" fill="#eeca3b"/>
                <path d="M85 156.75h2.349v13.5H85Z" fill="#4c78a8"/>
            </g>
        </g>
        <g class="mark-group role-scope child__Strict_Assertion_group" aria-roledescription="group mark container">
            <path class="background" aria-hidden="true" d="M459.5 156.5h200v60h-200Z" stroke="#ddd"/>
            <g class="mark-group role-axis" aria-roledescription="axis" aria-label="X-axis for a linear scale with values from 0 to 18,000,000">
                <path class="background" aria-hidden="true" d="M459.5 216.5Z" pointer-events="none"/>
                <g class="mark-rule role-axis-grid" pointer-events="none" stroke="#ddd">
                    <path d="M459.5 216.5v-60M515.5 216.5v-60M570.5 216.5v-60M626.5 216.5v-60"/>
                </g>
            </g>
            <g pointer-events="none" class="mark-group role-axis" aria-roledescription="axis" aria-label="X-axis titled 'Strict Assertion' for a linear scale with values from 0 to 18,000,000">
                <path class="background" aria-hidden="true" d="M459.5 216.5Z"/>
                <g class="mark-rule role-axis-tick" stroke="#888">
                    <path d="M459.5 216.5v5M515.5 216.5v5M570.5 216.5v5M626.5 216.5v5"/>
                </g>
                <g class="mark-text role-axis-label" font-family="sans-serif" font-size="10" fill="#000">
                    <text transform="translate(459.5 231.5)">0</text>
                    <text text-anchor="middle" transform="translate(626.167 231.5)">15,000,000</text>
                </g>
                <path stroke="#888" d="M459.5 216.5h200" class="mark-rule role-axis-domain"/>
                <text text-anchor="middle" transform="translate(559.5 246.5)" font-family="sans-serif" font-size="11" font-weight="bold" fill="#000" class="mark-text role-axis-title">Strict Assertion</text>
            </g>
            <g pointer-events="none" class="mark-group role-axis" aria-roledescription="axis" aria-label="Y-axis for a discrete scale with 4 values: ... rest, simple-runtypes, spectypes, valita">
                <path class="background" aria-hidden="true" d="M459.5 156.5Z"/>
                <g class="mark-rule role-axis-tick" stroke="#888">
                    <path d="M459.5 163.5h-5M459.5 178.5h-5M459.5 193.5h-5M459.5 208.5h-5"/>
                </g>
                <g class="mark-text role-axis-label" text-anchor="end" font-family="sans-serif" font-size="10" fill="#000">
                    <text transform="translate(452.5 166.5)">... rest</text>
                    <text transform="translate(452.5 181.5)">simple-runtypes</text>
                    <text transform="translate(452.5 196.5)">spectypes</text>
                    <text transform="translate(452.5 211.5)">valita</text>
                </g>
                <path stroke="#888" d="M459.5 156.5v60" class="mark-rule role-axis-domain"/>
            </g>
            <g class="mark-rect role-mark child__Strict_Assertion_marks" aria-roledescription="rect mark container">
                <path d="M459 186.75h189.854v13.5H459Z" fill="#54a24b"/>
                <path d="M459 201.75h31.135v13.5H459Z" fill="#b279a2"/>
                <path d="M459 171.75h24.076v13.5H459Z" fill="#72b7b2"/>
                <path d="M459 156.75h5.215v13.5H459Z" fill="#4c78a8"/>
            </g>
        </g>
        <g class="mark-group role-title">
            <path class="background" aria-hidden="true" d="M335.833 5Z" pointer-events="none"/>
            <text text-anchor="middle" transform="translate(335.833 18)" font-family="sans-serif" font-size="16" fill="#000" class="mark-text role-title-text" aria-roledescription="title" aria-label="Title text 'Top 3 packages for each benchmark'" pointer-events="none">Top 3 packages for each benchmark</text>
        </g>
    </g>
</svg>
